<svg id="Layer_1" xmlns="http://www.w3.org/2000/svg" viewBox="0 0 196.8 48.3"><style>.st0{fill:#281160}</style><path class="st0" d="M40.4 45.6h-36C2.5 45.6.9 44 .9 42.1v-36c0-1.9 1.6-3.5 3.5-3.5h36c1.9 0 3.5 1.6 3.5 3.5v36c0 1.9-1.6 3.5-3.5 3.5z"/><path d="M31.1 8.1h-2.6c-1.2 0-2.2.6-2.7 1.6v.1c-.1.2-.3.5-.4.7-1.6 2.6-3 4.7-3 4.7s-.4-.7-1-1.7c-.5-.8-1.1-1.9-1.8-3-.1-.2-.2-.4-.4-.6 0-.1-.1-.1-.1-.2-.5-.9-1.5-1.5-2.7-1.5h-2.6c-1.7 0-3.1 1.4-3.1 3.1v3.6h.3c1.7 0 3.1 1.4 3.1 3.1 0 1.6-1.2 2.9-2.8 3.1h-.8v5.8h.5c1.7 0 3.1 1.4 3.1 3.1 0 1.6-1.2 2.9-2.8 3.1h-.8v3.6c0 1.4.9 2.5 2.1 2.9 1.2-2.2 2.5-4.3 3.4-5.6.5-.8.8-1.3.8-1.3s.1.2.4.6c.5.8 1.3 2.2 2.2 3.8.3.5.6 1.1 1 1.7.2.3.4.7.6 1h2.7c.5-.9 1.1-1.9 1.6-2.7 1-1.6 1.8-3 2.3-3.7.3-.4.4-.6.4-.6s.3.5.8 1.3c.8 1.3 2.1 3.5 3.3 5.5 1.2-.4 2.1-1.6 2.1-2.9V11.2c0-1.7-1.4-3.1-3.1-3.1zm-8.7 22.7c-.4 0-.8-.1-1.1-.2-1.2-.4-2-1.6-2-2.9s.8-2.5 2-2.9c.2-.1.5-.2.8-.2h.4c.7 0 1.4.3 1.9.7.3.2.5.5.7.8 0 .1.1.1.1.2.2.4.3.9.3 1.4 0 1.7-1.4 3.1-3.1 3.1z" fill-rule="evenodd" clip-rule="evenodd" fill="#fff"/><path d="M22.4 20.5c-4 0-7.2 3.2-7.2 7.2 0 .9.2 1.8.5 2.7.9 2.2 5 9.1 6.3 11.2l.1.1c.1.1.2.1.3.1.1 0 .3-.1.3-.2v-.1c1.5-2.3 6.8-10.5 6.8-13.9 0-3.8-3.2-7.1-7.1-7.1zm0 10.3c-1.7 0-3.1-1.4-3.1-3.1 0-1.6 1.2-2.9 2.8-3.1h.4c.7 0 1.4.3 1.9.7.3.2.5.5.7.8 0 .1.1.1.1.2.2.4.3.9.3 1.4 0 1.7-1.4 3.1-3.1 3.1z" fill-rule="evenodd" clip-rule="evenodd" fill="#ee4a7e"/><path class="st0" d="M61 34.4c.5 0 .9.2 1.3.5.4.4.5.8.5 1.3s-.2.9-.5 1.3c-.4.3-.8.5-1.3.5h-9.5c-.5 0-.9-.2-1.3-.5-.3-.4-.5-.8-.5-1.3V12.1c0-.5.2-.9.5-1.3.4-.3.8-.5 1.3-.5H61c.5 0 .9.2 1.3.5.4.4.5.8.5 1.3s-.2.9-.5 1.3-.8.5-1.3.5h-7.7v7.5h6.5c.5 0 .9.2 1.3.5.3.3.5.8.5 1.3s-.2.9-.5 1.3c-.4.4-.8.5-1.3.5h-6.5v9.4H61zM79.8 18.6c.5.2.8.5 1 .9.2.4.2.9 0 1.4l-6 15.9c-.2.5-.5.8-1 1-.1 0-.2 0-.3.1h-.6c-.1 0-.2 0-.3-.1-.5-.2-.8-.5-1-1l-6-15.9c-.2-.5-.1-.9.1-1.4.2-.4.5-.8 1-.9.5-.2.9-.2 1.4 0 .5.2.8.5.9 1l4.4 11.5 4.3-11.5c.2-.5.5-.8.9-1 .4-.2.7-.3.7-.3s0 .1.5.3zM99.3 26.4c0 .7-.2 1.3-.5 1.8-.7 1.2-1.7 1.8-3.1 1.8h-8.9c0 1.2.4 2.3 1.3 3.1.9.9 1.9 1.3 3.1 1.3h.1c1.5 0 2.7-.6 3.6-1.8.5-.7 1.2-.9 2-.6.6.2 1 .6 1.1 1.2.2.6.1 1.1-.3 1.6-1.5 2.1-3.7 3.2-6.4 3.2h-.1c-2.2 0-4.1-.8-5.6-2.3-1.6-1.5-2.3-3.4-2.4-5.6v-3.7c0-2.2.8-4.1 2.3-5.6 1.6-1.6 3.5-2.3 5.7-2.3h.1c2.2 0 4.1.8 5.7 2.4.7.8 1.3 1.6 1.7 2.6.2.5.4 1.1.5 1.6.1.4.1.7.1.7v.6zm-12.5 0h8.9c0-1.2-.4-2.2-1.3-3.1-.9-.9-1.9-1.3-3.1-1.3h-.1c-1.2 0-2.3.4-3.1 1.3-.9.8-1.3 1.9-1.3 3.1zM110.6 18.3c2.2 0 4.1.8 5.7 2.3 1.6 1.6 2.3 3.5 2.3 5.7v9.9c0 .5-.2.9-.5 1.3-.3.3-.8.5-1.3.5s-.9-.2-1.3-.5c-.3-.4-.5-.8-.5-1.3v-9.9c0-1.2-.4-2.3-1.3-3.1-.9-.9-1.9-1.3-3.1-1.3h-.1c-1.2 0-2.3.4-3.1 1.3-.9.9-1.3 1.9-1.3 3.1v9.9c0 .5-.2.9-.5 1.3-.4.3-.8.5-1.3.5s-.9-.2-1.3-.5c-.3-.4-.5-.8-.5-1.3V20.1c0-.5.2-.9.5-1.3.4-.3.8-.5 1.3-.5.9 0 1.5.5 1.7 1.4 1.3-.9 2.8-1.4 4.5-1.4h.1zM129.3 34.4c.5 0 .9.2 1.3.5.4.4.5.8.5 1.3s-.2.9-.5 1.3c-.3.3-.8.5-1.3.5-2.2 0-4.1-.8-5.7-2.3-1.6-1.6-2.3-3.5-2.3-5.7V12.6c0-.5.2-.9.5-1.3.4-.3.8-.5 1.3-.5s.9.2 1.3.5c.3.4.5.8.5 1.3v6h2.9c.5 0 .9.2 1.3.5s.5.8.5 1.3-.2.9-.5 1.3-.8.5-1.3.5h-2.9V30c0 1.2.4 2.3 1.3 3.1.8.9 1.8 1.3 3.1 1.3zM145.6 35.1c.3.4.4.8.3 1.3-.1.5-.3.9-.7 1.2-.4.3-.8.4-1.3.3-.5-.1-.9-.3-1.2-.7l-5.4-7.1v6c0 .5-.2.9-.5 1.3-.4.3-.8.5-1.3.5s-.9-.2-1.3-.5c-.3-.4-.5-.8-.5-1.3V12.6c0-.5.2-.9.5-1.3.4-.4.8-.5 1.3-.5s.9.2 1.3.5c.3.3.5.8.5 1.3v11.7l5.2-5.2c.3-.3.8-.5 1.3-.5s.9.2 1.3.5c.3.3.5.8.5 1.3s-.2.9-.5 1.3l-5.5 5.5 6 7.9zM156.1 18.3c2.2 0 4.1.8 5.7 2.3 1.6 1.6 2.3 3.5 2.3 5.7V30c0 2.2-.8 4.1-2.3 5.7-1.6 1.6-3.5 2.3-5.7 2.3h-.1c-2.2 0-4.1-.8-5.7-2.3-1.6-1.6-2.3-3.5-2.3-5.7v-3.7c0-2.2.8-4.1 2.3-5.7 1.6-1.6 3.5-2.3 5.7-2.3h.1zm4.4 8c0-1.2-.4-2.3-1.3-3.1-.9-.9-1.9-1.3-3.1-1.3h-.1c-1.2 0-2.3.4-3.1 1.3-.9.9-1.3 1.9-1.3 3.1V30c0 1.2.4 2.3 1.3 3.1.9.9 1.9 1.3 3.1 1.3h.1c1.2 0 2.2-.4 3.1-1.3.9-.9 1.3-1.9 1.3-3.1v-3.7zM187.9 18.3c2.2 0 4.1.8 5.7 2.3 1.6 1.6 2.3 3.5 2.3 5.7v9.9c0 .5-.2.9-.5 1.3s-.8.5-1.3.5-.9-.2-1.3-.5c-.3-.3-.5-.8-.5-1.3v-9.9c0-1.2-.4-2.3-1.3-3.1-.9-.9-1.9-1.3-3.1-1.3h-.1c-1.2 0-2.3.4-3.1 1.3-.9.9-1.3 1.9-1.3 3.1v9.8c0 .5-.2.9-.5 1.3-.3.3-.8.5-1.3.5s-.9-.2-1.3-.5c-.3-.4-.5-.8-.5-1.3v-9.9c0-1.2-.4-2.3-1.3-3.1-.9-.9-1.9-1.3-3.1-1.3h-.1c-1.2 0-2.3.4-3.1 1.3-.9.9-1.3 1.9-1.3 3.1v9.9c0 .5-.2 1-.6 1.3-.4.4-.8.5-1.3.5s-.9-.2-1.2-.6c-.3-.4-.5-.8-.5-1.3V20.3c0-.6.2-1 .7-1.4.4-.4.9-.5 1.5-.4.6.1 1.1.5 1.3 1.2l.1-.1c1.3-.9 2.8-1.3 4.4-1.3h.1c2.5 0 4.6 1 6.2 2.9 1.6-1.9 3.6-2.8 6.1-2.8h.2z"/></svg>