<?xml version="1.0" standalone="no"?>
<!DOCTYPE svg PUBLIC "-//W3C//DTD SVG 20010904//EN"
 "http://www.w3.org/TR/2001/REC-SVG-20010904/DTD/svg10.dtd">
<svg version="1.0" xmlns="http://www.w3.org/2000/svg"
 width="680.000000pt" height="680.000000pt" viewBox="0 0 680.000000 680.000000"
 preserveAspectRatio="xMidYMid meet">
<metadata>
Created by potrace 1.11, written by Peter Selinger 2001-2013
</metadata>
<g transform="translate(0.000000,680.000000) scale(0.100000,-0.100000)"
fill="#000000" stroke="none">
<path d="M3353 6717 c-26 -26 -44 -38 -100 -63 -85 -39 -94 -43 -137 -49 -22
-3 -42 -8 -44 -10 -3 -3 -11 0 -18 6 -8 7 -14 7 -19 -1 -4 -7 -13 -7 -27 1
-16 9 -19 8 -13 -2 5 -8 4 -10 -3 -5 -12 7 -28 11 -87 22 -36 6 -153 59 -176
79 -13 13 -21 11 -60 -17 -24 -18 -47 -37 -51 -43 -4 -5 -8 -7 -8 -3 0 3 -10
-2 -22 -12 -64 -54 -111 -90 -116 -90 -4 0 -19 -10 -34 -23 -14 -12 -36 -29
-48 -37 -13 -8 -34 -25 -48 -37 -14 -13 -28 -23 -31 -23 -3 0 -24 -15 -46 -34
l-40 -35 25 -27 c42 -47 44 -50 65 -78 11 -15 32 -41 47 -58 25 -28 30 -30 55
-20 15 6 48 17 73 23 25 7 50 14 55 15 45 13 62 16 78 17 9 1 17 4 17 8 0 4 8
6 17 5 10 -2 31 3 48 9 16 7 38 11 48 10 9 -2 17 0 17 4 0 4 16 7 35 6 19 0
35 3 35 7 0 3 8 7 18 6 9 0 37 3 62 7 25 3 54 7 65 8 11 1 23 7 27 12 5 6 8 5
8 -3 0 -8 5 -10 12 -6 12 8 20 9 148 19 70 6 402 7 462 2 15 -2 30 -6 34 -10
4 -3 15 -2 25 3 10 6 20 6 23 2 3 -5 22 -9 43 -10 36 -1 59 -3 131 -16 17 -3
44 -8 60 -11 23 -4 66 -12 161 -31 14 -3 29 -8 34 -11 9 -5 33 -10 85 -15 6
-1 12 -6 12 -11 0 -6 2 -8 5 -5 3 3 43 -6 88 -19 104 -31 117 -33 117 -25 0 4
24 53 54 110 l54 102 -40 33 c-22 17 -45 37 -52 42 -38 34 -115 95 -119 95 -5
0 -56 42 -92 75 -11 11 -24 21 -29 21 -4 1 -30 20 -58 43 -28 23 -58 41 -67
41 -9 0 -53 -18 -98 -40 -44 -21 -93 -42 -109 -45 -46 -9 -48 -10 -59 -16 -5
-3 -27 -5 -47 -5 -21 1 -38 -3 -38 -7 0 -5 -5 -5 -12 -1 -6 4 -34 8 -62 10
-45 2 -86 9 -93 14 -2 2 -6 3 -10 4 -31 5 -93 31 -93 38 0 5 -4 7 -9 4 -4 -3
-19 3 -31 14 -12 11 -31 22 -41 25 -11 4 -19 11 -19 16 0 13 -23 11 -37 -4z"/>
<path d="M3240 6182 c0 -4 -26 -8 -57 -9 -64 -1 -164 -10 -203 -18 -14 -3 -43
-8 -65 -11 -22 -3 -59 -10 -83 -15 -24 -5 -48 -7 -53 -4 -5 4 -9 2 -9 -3 0 -5
-6 -9 -12 -9 -7 0 -29 -4 -48 -8 -19 -4 -41 -8 -47 -8 -7 0 -13 -3 -13 -7 0
-4 -6 -7 -12 -7 -29 -1 -71 -13 -199 -56 -134 -45 -178 -62 -256 -98 -23 -10
-48 -20 -55 -21 -7 -2 -15 -5 -18 -8 -3 -3 -36 -21 -75 -40 -38 -18 -82 -42
-96 -52 -14 -9 -29 -15 -33 -11 -3 3 -6 1 -6 -5 0 -7 -5 -12 -11 -12 -6 0 -42
-20 -80 -45 -38 -25 -74 -45 -79 -45 -6 0 -10 -4 -10 -9 0 -5 -8 -12 -18 -15
-10 -4 -27 -14 -38 -24 -11 -9 -42 -33 -69 -52 -48 -33 -61 -43 -106 -82 -11
-9 -39 -31 -62 -50 -41 -32 -291 -280 -332 -329 -165 -194 -307 -406 -405
-604 -30 -60 -59 -113 -63 -116 -5 -3 -8 -8 -7 -10 2 -5 -8 -33 -40 -109 -33
-79 -43 -103 -45 -112 -2 -5 -3 -9 -5 -10 -1 -2 -3 -11 -5 -21 -2 -10 -7 -26
-11 -35 -4 -9 -8 -19 -9 -22 0 -3 -11 -38 -24 -79 -12 -41 -23 -82 -24 -92 -1
-11 -6 -19 -11 -19 -5 0 -6 -3 -3 -6 3 -4 2 -15 -4 -25 -7 -14 -6 -19 3 -19 9
0 10 -2 2 -8 -7 -4 -15 -25 -19 -47 -8 -47 -13 -70 -15 -70 -2 0 -5 -18 -14
-85 -4 -25 -8 -52 -11 -60 -6 -21 -18 -151 -17 -174 1 -11 -3 -27 -9 -37 -6
-11 -5 -20 1 -24 6 -4 7 -13 2 -23 -12 -23 -14 -320 -3 -327 6 -3 6 -18 1 -35
-5 -17 -5 -30 -1 -30 4 0 7 -15 7 -32 -2 -53 22 -240 39 -318 7 -31 12 -55 20
-100 3 -19 10 -46 15 -60 5 -14 11 -36 13 -50 2 -14 6 -32 9 -40 12 -30 42
-136 45 -154 2 -11 7 -24 12 -30 5 -6 14 -27 19 -46 12 -40 42 -117 68 -175
10 -22 18 -42 19 -45 5 -20 71 -146 80 -152 5 -4 7 -8 2 -8 -4 0 3 -17 16 -38
13 -20 27 -44 30 -52 4 -8 16 -28 27 -45 11 -16 23 -37 27 -46 19 -38 126
-189 135 -189 5 0 7 -4 4 -8 -3 -5 5 -19 17 -33 39 -44 107 -127 107 -132 0
-2 24 -29 52 -59 29 -31 69 -73 89 -94 69 -75 225 -216 301 -274 11 -8 44 -34
73 -57 30 -24 58 -43 64 -43 6 0 11 -4 11 -10 0 -5 5 -10 11 -10 6 0 17 -6 24
-12 31 -28 44 -38 50 -38 4 0 30 -16 59 -35 29 -19 58 -35 65 -35 6 0 11 -4
11 -10 0 -5 4 -10 9 -10 5 0 55 -24 110 -54 56 -30 101 -53 101 -51 0 2 26
-10 58 -26 31 -16 62 -29 68 -29 6 0 16 -6 22 -13 8 -9 -75 -12 -411 -12
l-422 0 -3 -118 -3 -117 2003 2 2003 3 0 55 c0 30 4 61 8 68 5 6 4 12 -1 12
-12 0 -12 32 1 48 6 8 6 12 -2 12 -8 0 -10 8 -6 20 6 20 2 20 -382 21 -213 0
-408 0 -433 0 l-45 -1 35 19 c19 10 38 17 42 14 5 -2 8 1 8 6 0 6 9 11 21 11
11 0 17 5 14 10 -3 6 1 10 10 10 9 0 32 9 53 19 20 10 41 19 46 19 5 0 12 4
15 9 3 4 24 17 46 28 52 26 216 126 233 142 7 7 17 13 20 13 4 0 7 57 6 127
-3 161 -1 150 -19 150 -8 0 -13 -3 -10 -5 3 -3 -4 -10 -14 -16 -10 -6 -58 -38
-107 -71 -49 -32 -91 -60 -94 -60 -3 0 -12 -5 -20 -10 -58 -38 -164 -96 -187
-102 -13 -3 -23 -9 -23 -14 0 -5 -4 -9 -10 -9 -8 0 -54 -19 -160 -68 -19 -8
-37 -16 -40 -16 -3 -1 -18 -6 -35 -13 -55 -21 -70 -26 -80 -28 -5 -1 -32 -10
-60 -20 -27 -9 -57 -19 -65 -21 -8 -2 -33 -8 -55 -14 -38 -10 -59 -15 -107
-24 -13 -3 -36 -9 -53 -14 -16 -5 -40 -8 -52 -7 -13 1 -23 -1 -23 -5 0 -4 -12
-6 -27 -5 -16 1 -32 -1 -38 -4 -11 -6 -21 -8 -90 -16 -99 -11 -163 -13 -320
-13 -203 0 -265 2 -265 8 0 3 -24 5 -53 5 -28 0 -56 2 -62 4 -5 3 -21 6 -35 6
-14 1 -38 5 -55 8 -16 4 -43 9 -60 12 -16 3 -41 7 -55 10 -23 6 -47 10 -95 20
-11 2 -22 4 -25 6 -3 1 -9 3 -15 4 -40 7 -242 70 -295 93 -19 8 -36 14 -38 13
-1 -1 -15 5 -31 13 -16 9 -31 12 -35 9 -3 -4 -6 -1 -6 5 0 7 -6 12 -12 12 -13
0 -184 84 -273 135 -104 58 -287 184 -342 235 -12 11 -25 20 -28 20 -4 0 -12
6 -19 13 -8 7 -37 33 -66 58 -99 84 -240 229 -330 338 -19 24 -41 49 -48 56
-6 8 -12 18 -12 24 0 6 -4 11 -8 11 -4 0 -21 20 -36 45 -16 25 -32 45 -36 45
-3 0 -14 15 -23 32 -10 18 -25 45 -35 60 -81 126 -225 406 -234 458 -2 8 -6
17 -9 20 -6 6 -69 177 -73 200 -1 8 -5 22 -9 30 -3 8 -8 27 -11 42 -3 15 -7
31 -10 36 -3 5 -7 19 -10 33 -3 13 -8 35 -11 49 -3 14 -8 34 -10 45 -2 11 -6
31 -10 45 -3 14 -8 39 -10 55 -2 17 -6 44 -9 60 -2 17 -7 55 -11 85 -4 30 -9
58 -12 63 -2 4 2 7 9 7 11 0 11 2 0 9 -9 5 -14 39 -15 114 -1 59 -5 107 -8
107 -7 0 -4 38 6 63 4 9 3 17 -2 17 -5 0 -9 10 -7 23 1 12 3 22 4 22 1 0 3 29
5 65 8 130 16 206 32 290 3 19 7 46 8 60 1 14 3 25 5 25 1 0 3 9 5 20 1 11 5
34 9 50 3 17 8 39 10 50 2 11 9 40 16 65 7 25 14 54 17 65 6 27 9 37 16 55 15
35 36 100 32 100 -2 0 7 25 21 55 13 31 24 62 24 70 0 8 5 15 10 15 6 0 9 3 8
8 0 4 2 16 6 27 13 33 138 290 145 295 3 3 19 30 35 60 16 30 32 57 36 60 3 3
19 27 34 54 15 26 37 57 47 67 10 10 17 19 13 19 -8 0 124 164 188 234 21 23
38 44 38 49 0 4 7 7 15 7 8 0 15 4 15 9 0 10 63 73 146 146 31 28 64 58 72 68
9 9 22 17 29 17 7 0 13 4 13 8 0 5 21 24 48 42 26 19 49 36 52 40 12 13 132
90 140 90 6 0 10 4 10 8 0 5 15 16 33 25 17 9 59 33 92 52 50 30 231 124 238
124 1 0 25 10 52 23 28 12 52 22 55 23 3 0 10 3 15 6 9 6 79 30 100 35 6 2 33
11 62 22 28 11 54 17 57 14 3 -3 6 1 6 8 0 7 3 11 6 8 3 -4 20 -2 37 4 65 20
142 36 149 32 5 -3 8 0 8 6 0 6 6 10 13 9 6 -2 26 0 42 4 17 4 46 9 65 12 19
3 49 8 65 12 17 3 50 7 75 9 25 1 45 3 45 4 0 7 118 12 270 13 158 1 305 -6
377 -18 13 -2 43 -6 68 -9 25 -3 56 -8 70 -11 60 -12 86 -17 105 -20 11 -1 20
-3 20 -5 0 -1 11 -3 25 -6 81 -12 100 -17 100 -26 0 -5 4 -7 10 -3 5 3 26 -1
47 -10 20 -9 43 -13 49 -11 7 3 14 1 16 -4 2 -5 12 -11 23 -13 11 -2 33 -9 48
-15 16 -7 30 -12 32 -12 2 0 16 -5 32 -12 15 -6 33 -12 38 -13 30 -4 338 -154
347 -169 4 -6 8 -7 8 -1 0 7 3 7 8 0 4 -6 24 -19 45 -30 21 -11 47 -28 58 -38
10 -10 19 -15 19 -12 0 15 292 -202 369 -275 15 -14 42 -37 60 -52 18 -16 29
-28 24 -28 -4 0 6 -9 22 -20 17 -11 27 -20 24 -20 -3 0 20 -26 50 -58 76 -79
121 -132 121 -143 0 -5 3 -9 8 -9 4 0 28 -28 52 -62 25 -34 50 -66 55 -73 16
-18 35 -49 41 -67 4 -10 10 -18 14 -18 4 0 15 -16 26 -35 10 -19 22 -35 26
-35 5 0 8 -9 8 -20 0 -11 5 -20 10 -20 6 0 10 -7 10 -15 0 -8 5 -15 11 -15 5
0 7 -4 4 -10 -3 -5 -2 -10 3 -10 5 0 12 -8 15 -17 5 -16 30 -65 58 -113 5 -8
14 -26 19 -40 6 -14 19 -41 29 -60 11 -19 21 -44 23 -55 1 -11 6 -22 9 -25 9
-9 110 -282 109 -297 0 -3 1 -7 5 -20 1 -5 5 -21 10 -38 4 -16 12 -36 18 -42
6 -9 6 -13 -2 -13 -8 0 -9 -5 -2 -19 6 -10 13 -36 16 -57 10 -59 13 -79 15
-79 3 0 10 -41 15 -91 3 -28 8 -62 10 -75 8 -41 18 -161 19 -231 1 -38 4 -68
8 -68 4 0 3 -11 -2 -24 -5 -15 -5 -27 3 -35 8 -8 8 -11 -1 -11 -8 0 -9 -7 -2
-24 6 -17 5 -26 -3 -29 -9 -3 -9 -7 0 -18 7 -8 8 -20 4 -28 -5 -7 -9 -45 -10
-84 l-2 -72 111 1 c61 1 114 4 117 8 4 4 8 53 10 109 1 56 2 102 3 102 1 0 2
19 4 43 1 23 -2 42 -7 42 -4 0 -5 5 -1 12 4 7 6 35 4 62 -2 28 -4 78 -5 111
-1 33 -3 60 -4 60 -1 0 -4 23 -7 50 -5 61 -26 200 -38 255 -3 14 -8 35 -10 48
-3 13 -8 33 -12 44 -4 15 -3 19 7 14 8 -4 6 -1 -3 7 -10 8 -15 17 -12 20 3 3
2 12 -2 19 -5 7 -9 22 -9 33 0 11 -3 25 -7 30 -3 6 -9 27 -13 48 -4 20 -10 37
-14 37 -4 0 -7 8 -8 18 -2 20 -32 117 -53 167 -7 17 -16 39 -20 50 -4 11 -27
64 -50 117 -23 53 -41 100 -40 104 1 4 -2 10 -7 13 -5 3 -24 35 -42 71 -45 86
-103 183 -114 191 -5 3 -8 9 -8 13 1 5 -62 108 -81 131 -4 5 -41 53 -82 106
-147 191 -334 378 -531 532 -55 42 -104 81 -110 85 -35 28 -136 92 -144 92 -5
0 -11 4 -13 8 -4 10 -105 72 -117 72 -5 0 -14 7 -21 15 -7 8 -16 13 -20 10 -4
-2 -18 4 -30 15 -12 11 -26 17 -30 15 -4 -3 -11 2 -14 11 -4 9 -9 14 -13 11
-3 -4 -21 3 -40 14 -18 11 -33 17 -33 12 0 -4 -4 -3 -8 2 -4 6 -32 21 -62 34
-30 13 -68 30 -85 37 -16 7 -33 10 -37 8 -4 -3 -8 0 -8 5 0 6 -8 11 -18 11
-10 0 -22 4 -27 9 -6 6 -21 12 -35 14 -14 3 -38 11 -55 17 -32 13 -152 47
-195 56 -14 2 -32 7 -40 11 -8 3 -22 7 -30 8 -8 1 -28 6 -45 9 -16 4 -41 9
-55 11 -14 2 -25 4 -25 5 0 3 -12 5 -90 15 -27 3 -61 8 -75 11 -99 21 -520 38
-520 22 0 -4 -11 -3 -25 2 -14 5 -25 6 -25 2z"/>
<path d="M3178 5905 c-2 -3 -31 -7 -64 -10 -32 -3 -72 -7 -89 -9 -16 -2 -52
-7 -80 -11 -27 -4 -59 -9 -70 -12 -101 -24 -115 -27 -192 -44 -30 -7 -50 -16
-46 -22 3 -6 1 -7 -6 -3 -10 7 -57 -4 -101 -22 -8 -3 -19 -7 -25 -7 -5 -1 -23
-7 -40 -14 -16 -6 -43 -17 -60 -23 -16 -6 -55 -22 -85 -36 -30 -13 -64 -26
-74 -28 -11 -2 -23 -9 -26 -15 -4 -6 -10 -10 -14 -10 -16 3 -288 -145 -294
-160 -2 -5 -8 -9 -14 -9 -6 0 -28 -14 -49 -31 -21 -17 -39 -28 -39 -25 0 3 -8
-1 -17 -8 -10 -8 -38 -31 -63 -51 -25 -20 -53 -43 -63 -51 -9 -8 -19 -14 -21
-14 -15 0 -286 -267 -286 -281 0 -6 -4 -7 -10 -4 -5 3 -10 3 -10 -2 0 -4 -14
-24 -31 -43 -18 -19 -50 -59 -71 -87 -22 -29 -45 -53 -50 -53 -5 0 -7 -4 -4
-8 3 -4 -10 -24 -29 -44 -18 -20 -30 -39 -27 -42 3 -3 0 -6 -6 -6 -7 0 -12 -6
-12 -13 0 -7 -11 -24 -25 -39 -14 -15 -25 -31 -25 -35 0 -5 -15 -31 -33 -59
-17 -28 -37 -59 -43 -70 -53 -93 -72 -132 -67 -138 4 -3 2 -6 -4 -6 -8 0 -64
-114 -69 -140 0 -3 -11 -27 -23 -55 -13 -27 -24 -54 -25 -60 -2 -5 -6 -17 -9
-25 -3 -8 -13 -40 -22 -70 -9 -30 -19 -62 -22 -70 -3 -8 -8 -26 -10 -40 -2
-13 -7 -27 -11 -30 -4 -3 -8 -14 -9 -25 -1 -11 -4 -31 -8 -45 -3 -14 -8 -36
-11 -50 -2 -14 -7 -36 -11 -50 -3 -14 -5 -29 -4 -34 1 -5 -4 -13 -11 -17 -11
-7 -11 -9 0 -9 8 0 10 -5 5 -12 -4 -7 -8 -22 -9 -33 -1 -11 -5 -38 -8 -60 -9
-63 -18 -145 -22 -210 -5 -78 -5 -360 0 -405 3 -19 7 -60 10 -90 9 -79 21
-164 32 -214 3 -11 7 -32 10 -46 3 -14 7 -33 10 -42 3 -10 7 -30 10 -45 2 -16
8 -39 13 -53 5 -14 14 -45 21 -70 7 -25 15 -52 18 -60 3 -8 7 -19 7 -25 1 -5
6 -21 12 -35 6 -14 20 -52 32 -85 13 -33 28 -73 36 -90 16 -37 27 -69 25 -74
-1 -2 3 -7 10 -11 6 -4 13 -13 14 -21 4 -20 18 -53 25 -59 10 -8 35 -64 33
-72 -1 -5 3 -8 8 -8 6 0 10 -5 10 -10 0 -6 11 -28 24 -49 14 -21 22 -42 19
-45 -4 -3 -2 -6 3 -6 5 0 20 -20 34 -45 14 -25 28 -45 32 -45 5 0 8 -5 8 -10
0 -6 4 -16 10 -23 34 -41 119 -157 115 -157 -2 0 8 -13 23 -29 15 -16 54 -59
87 -96 63 -71 195 -205 195 -198 0 2 15 -11 34 -29 18 -18 42 -40 52 -48 99
-79 120 -96 126 -105 4 -5 8 -7 8 -3 0 7 25 -11 55 -40 8 -6 18 -12 24 -12 6
0 11 -4 11 -8 0 -5 12 -15 27 -23 16 -8 30 -16 33 -19 22 -25 342 -199 381
-208 8 -2 16 -8 17 -13 2 -5 10 -9 18 -9 7 0 38 -11 69 -24 30 -14 55 -22 55
-19 0 3 6 0 14 -6 8 -7 22 -13 32 -15 11 -3 42 -12 69 -21 28 -10 57 -19 65
-20 8 -2 15 -4 15 -5 0 -1 11 -4 25 -7 31 -6 41 -8 60 -16 21 -8 71 -18 98
-20 12 -1 22 -4 22 -7 0 -3 8 -6 18 -7 9 -1 35 -4 57 -8 22 -3 52 -7 68 -7 15
-1 27 -4 27 -8 0 -3 21 -5 48 -5 26 0 52 -2 57 -5 23 -11 503 -22 510 -11 2 4
24 6 49 6 25 -1 46 2 46 5 0 3 15 6 33 6 17 1 50 4 72 8 22 3 58 8 80 11 22 3
49 8 60 12 11 4 25 7 30 8 23 2 134 29 155 38 18 7 97 29 124 34 11 2 25 8 33
14 7 6 13 9 13 5 0 -4 13 0 29 8 16 9 31 12 35 9 3 -4 6 0 6 7 0 7 3 11 6 8
12 -12 263 105 414 193 112 66 122 72 135 84 6 6 33 23 58 39 26 17 47 34 47
38 0 4 5 8 11 8 7 0 21 10 33 23 20 21 21 33 21 165 -1 126 -9 181 -22 144 -3
-6 -11 -12 -19 -12 -9 0 -12 -4 -9 -10 3 -5 1 -10 -6 -10 -6 0 -22 -11 -35
-25 -13 -14 -27 -25 -31 -25 -4 0 -21 -12 -38 -28 -16 -15 -50 -40 -75 -57
-25 -16 -46 -33 -48 -37 -2 -5 -10 -8 -17 -8 -7 0 -15 -3 -17 -7 -4 -11 -85
-63 -97 -63 -5 0 -14 -7 -21 -15 -7 -9 -15 -13 -18 -11 -2 3 -19 -6 -38 -20
-18 -14 -35 -25 -38 -25 -4 1 -30 -11 -59 -26 -28 -15 -54 -27 -57 -28 -24 -5
-50 -18 -50 -26 0 -6 -4 -8 -9 -5 -4 3 -16 -1 -27 -8 -10 -8 -24 -12 -31 -9
-7 3 -13 0 -13 -6 0 -6 -11 -11 -25 -11 -14 0 -25 -5 -25 -10 0 -6 -6 -10 -12
-9 -7 1 -26 -3 -41 -9 -16 -7 -35 -12 -43 -12 -8 0 -14 -5 -14 -11 0 -5 -4 -8
-9 -5 -5 3 -37 -3 -72 -14 -35 -11 -74 -21 -86 -22 -13 -2 -23 -6 -23 -11 0
-4 -4 -6 -9 -3 -4 3 -23 1 -42 -4 -35 -10 -111 -23 -141 -24 -10 0 -18 -3 -18
-6 0 -3 -15 -6 -33 -6 -17 -1 -70 -5 -117 -9 -149 -15 -448 -9 -550 10 -14 2
-54 9 -90 15 -36 6 -78 14 -95 17 -16 3 -34 6 -40 7 -5 1 -16 5 -22 9 -7 5
-13 6 -13 3 0 -2 -30 4 -67 15 -38 11 -79 22 -93 25 -13 3 -29 9 -35 13 -5 5
-18 7 -27 6 -10 -2 -18 1 -18 6 0 6 -4 7 -10 4 -5 -3 -10 -1 -10 4 0 6 -11 11
-24 11 -14 0 -27 4 -30 9 -3 5 -17 12 -31 15 -15 4 -74 30 -133 58 -59 28
-113 52 -121 54 -8 1 -17 7 -20 12 -6 10 -55 37 -83 48 -10 3 -18 10 -18 15 0
5 -7 9 -15 9 -8 0 -15 5 -15 10 0 6 -9 10 -20 10 -11 0 -20 3 -20 8 0 4 -25
23 -55 42 -30 19 -55 38 -55 43 0 4 -5 7 -11 7 -6 0 -16 6 -23 12 -7 7 -28 24
-46 38 -123 93 -314 287 -443 450 -41 51 -127 180 -127 189 0 6 -4 11 -9 11
-5 0 -14 14 -21 31 -7 17 -18 36 -24 42 -16 16 -121 230 -118 240 1 4 -3 7 -8
7 -5 0 -9 3 -8 8 1 4 -4 21 -11 37 -32 81 -58 154 -59 165 0 3 -7 23 -15 45
-30 80 -49 156 -43 171 3 8 2 12 -4 9 -5 -3 -9 3 -8 12 0 10 -3 29 -7 43 -7
27 -13 56 -19 95 -3 13 -7 29 -11 35 -3 5 0 10 7 10 10 0 10 2 -1 9 -8 5 -12
18 -8 30 3 12 2 21 -2 21 -4 0 -7 10 -6 22 1 13 -2 31 -7 42 -8 14 -7 17 3 11
8 -6 10 -4 4 5 -10 16 -15 96 -16 245 0 106 2 147 15 280 5 49 16 116 28 175
6 30 12 62 14 70 7 53 58 242 73 275 19 42 61 161 61 173 0 6 5 12 10 12 6 0
10 6 10 13 0 7 27 67 60 133 67 132 80 156 95 166 6 4 7 8 3 8 -5 0 12 30 37
66 25 36 45 67 45 70 0 3 11 17 25 32 14 15 25 30 25 34 0 5 8 16 18 26 9 10
31 36 47 57 17 22 42 52 57 67 15 15 26 28 23 28 -6 0 159 162 209 205 26 22
58 50 71 62 39 35 219 163 228 163 5 -1 17 8 26 19 10 11 21 18 25 14 3 -4 12
1 19 10 14 19 280 157 302 157 8 0 15 5 15 12 0 6 3 8 6 5 4 -3 16 -1 28 5 11
6 50 22 86 35 60 22 79 28 120 38 8 2 16 4 18 5 1 2 7 4 12 5 6 1 11 3 13 5 1
1 9 3 17 5 8 1 34 8 58 14 23 7 47 9 52 6 6 -3 10 -1 10 4 0 6 9 11 19 11 11
0 22 3 25 8 2 4 20 7 40 6 21 -1 36 3 36 10 0 6 5 4 10 -4 5 -8 10 -10 10 -4
0 6 6 11 13 12 61 4 167 21 178 28 4 2 10 0 14 -6 4 -6 12 -7 18 -3 7 4 28 8
47 9 68 4 295 3 335 -1 22 -2 67 -7 100 -10 80 -9 110 -13 110 -15 0 -3 41 -9
91 -13 23 -2 45 -7 51 -10 5 -3 20 -8 34 -10 52 -10 165 -40 196 -53 18 -8 33
-12 33 -9 0 2 25 -6 55 -20 30 -13 55 -22 55 -19 0 2 17 -4 39 -15 21 -11 41
-17 45 -14 3 4 6 1 6 -6 0 -7 5 -9 10 -6 6 3 10 1 10 -5 0 -6 4 -9 9 -5 5 3
12 1 16 -5 4 -6 11 -8 16 -5 5 4 12 0 15 -9 3 -8 12 -12 20 -9 8 3 14 0 14 -6
0 -6 9 -11 20 -11 11 0 23 -7 26 -15 4 -8 10 -13 14 -10 5 3 11 1 15 -5 4 -6
10 -8 15 -5 4 3 13 -2 20 -10 7 -8 19 -15 26 -15 8 0 14 -5 14 -11 0 -5 5 -7
10 -4 6 3 10 1 10 -4 0 -6 6 -11 14 -11 7 0 19 -7 26 -15 7 -8 16 -13 20 -10
5 3 11 1 15 -5 3 -5 32 -26 63 -47 91 -59 280 -214 362 -295 83 -83 180 -188
173 -188 -2 0 7 -11 21 -24 15 -13 26 -28 26 -34 0 -6 3 -12 8 -14 10 -4 103
-129 110 -148 3 -8 14 -24 24 -34 10 -11 18 -25 18 -32 0 -7 4 -14 8 -16 11
-4 97 -161 94 -170 -1 -5 2 -8 8 -8 5 0 10 -4 10 -10 0 -5 14 -40 31 -77 17
-37 35 -78 40 -90 5 -13 13 -33 18 -45 5 -13 14 -39 21 -58 7 -19 16 -44 20
-55 15 -35 48 -149 54 -180 2 -16 5 -30 6 -30 2 0 7 -22 15 -60 3 -16 8 -43
12 -60 9 -39 16 -88 27 -185 3 -19 5 -35 6 -35 1 0 3 -29 4 -65 1 -36 6 -71
10 -78 4 -7 2 -12 -4 -12 -6 0 -8 -5 -5 -10 4 -6 7 -660 7 -1454 l0 -1443 119
0 c102 0 119 2 119 16 4 874 -3 3066 -10 3066 -1 0 -3 16 -5 35 -8 82 -14 137
-20 160 -3 14 -7 36 -10 50 -11 56 -15 76 -21 100 -3 14 -9 41 -14 60 -15 63
-64 225 -69 230 -3 3 -7 12 -9 20 -1 8 -6 24 -11 35 -40 93 -59 144 -54 149 4
3 1 6 -5 6 -7 0 -12 7 -12 15 0 16 -20 56 -33 66 -4 3 -9 16 -10 27 -1 12 -4
22 -8 22 -4 0 -14 17 -23 38 -9 20 -27 55 -40 77 -14 22 -34 59 -46 83 -12 23
-26 42 -31 42 -5 0 -9 5 -9 11 0 12 -120 182 -132 187 -4 2 -8 8 -8 13 0 6
-12 21 -26 34 -15 14 -25 25 -22 25 14 0 -260 284 -318 330 -70 55 -129 106
-132 113 -2 4 -10 7 -17 7 -8 0 -18 6 -22 13 -4 8 -23 22 -40 32 -18 11 -33
23 -33 27 0 4 -5 8 -10 8 -6 0 -16 5 -23 10 -7 6 -37 26 -67 45 -30 19 -60 39
-67 45 -7 5 -19 10 -28 10 -8 0 -15 4 -15 8 0 4 -53 34 -117 66 -65 31 -126
62 -135 67 -10 5 -25 9 -33 9 -8 0 -15 5 -15 11 0 6 -6 9 -13 6 -7 -3 -21 1
-32 9 -10 8 -27 14 -37 14 -10 0 -18 5 -18 11 0 6 -6 9 -14 6 -7 -3 -17 -2
-22 3 -9 8 -91 33 -227 70 -37 10 -71 19 -75 20 -21 7 -30 9 -62 14 -19 3 -46
8 -60 11 -14 3 -35 7 -47 9 -13 3 -27 7 -33 11 -5 3 -10 1 -10 -5 0 -6 -5 -8
-11 -5 -10 7 -27 10 -109 21 -54 7 -516 15 -522 9z"/>
<path d="M1906 2983 c-1 -1 -33 -5 -70 -8 -37 -3 -76 -10 -88 -16 -16 -9 -19
-8 -13 2 5 8 4 10 -3 5 -7 -4 -20 -9 -30 -11 -9 -1 -37 -9 -62 -16 -55 -15
-51 -14 -75 -23 -130 -48 -161 -61 -166 -69 -4 -5 -12 -6 -18 -3 -6 4 -11 2
-11 -3 0 -6 -4 -11 -9 -11 -5 0 -37 -16 -70 -34 -34 -19 -61 -33 -61 -30 0 3
-10 -4 -22 -16 -12 -11 -26 -20 -31 -20 -5 0 -40 -21 -78 -46 -64 -43 -85 -73
-61 -88 5 -3 8 -15 7 -28 -1 -13 2 -29 8 -35 5 -7 7 -13 3 -13 -3 0 -1 -11 4
-25 10 -27 21 -71 22 -92 1 -7 5 -13 10 -13 5 0 7 -4 3 -9 -3 -5 -1 -12 4 -15
4 -3 12 -20 16 -38 4 -18 9 -35 10 -38 3 -9 25 -61 47 -113 25 -61 134 -273
148 -290 19 -22 59 -87 55 -87 -3 0 5 -11 16 -24 12 -13 22 -28 22 -33 1 -4
10 -18 22 -29 11 -12 27 -31 35 -44 54 -79 251 -288 355 -375 27 -22 53 -45
59 -50 6 -6 27 -22 46 -35 19 -13 37 -27 40 -30 13 -15 160 -110 169 -110 6 0
11 -3 11 -7 0 -5 10 -13 23 -19 12 -6 60 -31 107 -56 47 -25 114 -57 150 -73
36 -15 79 -34 97 -41 17 -8 33 -14 36 -14 3 0 18 -5 34 -12 15 -6 33 -12 38
-13 6 -2 37 -11 70 -21 33 -10 65 -19 70 -19 6 -1 19 -4 30 -8 11 -3 31 -8 45
-11 14 -3 35 -7 48 -10 55 -14 69 -17 97 -20 17 -3 46 -7 65 -10 19 -3 60 -8
91 -10 31 -1 60 -5 65 -8 5 -2 83 -3 174 -2 151 3 187 3 215 2 6 0 26 2 45 5
19 4 54 8 78 11 102 14 132 19 207 37 44 11 89 21 100 23 11 2 21 5 23 6 1 1
7 4 12 5 6 1 13 4 18 5 4 1 12 3 17 4 6 1 17 5 25 8 26 10 175 62 180 63 21 3
253 118 268 133 8 7 18 10 23 7 5 -4 9 -2 9 3 0 8 39 31 50 28 3 0 16 8 28 20
12 11 35 27 50 35 15 8 29 16 32 19 3 3 21 17 40 30 19 13 40 29 46 35 7 5 24
19 40 30 15 11 36 28 46 38 10 9 20 17 22 17 10 0 159 142 232 221 34 37 79
91 160 191 7 10 26 37 41 60 15 24 31 45 36 46 4 2 7 8 7 13 0 9 36 65 50 79
3 3 6 12 8 20 2 8 8 17 13 18 5 2 9 8 9 13 0 5 12 28 27 52 14 23 26 44 26 47
0 16 11 40 18 40 5 0 9 5 9 11 0 11 8 29 59 141 12 26 23 57 24 68 1 11 4 20
7 20 4 0 7 6 7 13 1 6 10 38 22 71 11 32 18 62 15 67 -3 5 -1 9 3 9 9 0 38
116 35 133 -1 4 2 17 8 28 18 33 1 40 -38 16 -20 -13 -52 -30 -69 -38 -18 -8
-33 -17 -33 -21 0 -5 -3 -7 -7 -6 -5 1 -38 -13 -75 -30 -36 -18 -71 -32 -77
-32 -6 0 -11 -5 -11 -11 0 -6 -7 -9 -15 -5 -8 3 -15 1 -15 -4 0 -6 -5 -10 -11
-10 -6 0 -25 -6 -42 -14 -18 -8 -54 -22 -82 -31 -27 -9 -59 -21 -70 -25 -25
-10 -92 -31 -108 -34 -7 -1 -18 -5 -24 -9 -7 -5 -13 -6 -13 -2 0 3 -8 1 -19
-4 -10 -6 -31 -13 -47 -16 -16 -2 -39 -7 -51 -10 -13 -3 -33 -7 -45 -10 -13
-3 -36 -8 -53 -11 -43 -8 -60 -12 -60 -14 0 -1 -20 -3 -45 -6 -25 -2 -61 -7
-80 -9 -50 -8 -105 -13 -182 -18 -37 -3 -71 -8 -77 -11 -5 -4 -12 -2 -15 3 -4
6 -18 6 -35 1 -16 -4 -32 -6 -35 -3 -3 3 -47 7 -98 9 -119 5 -236 16 -294 29
-12 3 -39 7 -60 11 -48 8 -55 9 -74 17 -8 3 -28 8 -45 10 -16 2 -37 6 -45 9
-8 3 -55 17 -105 32 -98 30 -198 67 -258 97 -22 10 -45 19 -53 19 -8 0 -14 5
-14 10 0 6 -5 10 -11 10 -18 0 -109 44 -109 52 0 5 -6 8 -12 8 -7 0 -57 23
-111 50 -55 28 -105 50 -113 50 -9 0 -12 5 -9 10 3 6 0 10 -7 10 -8 0 -31 9
-53 20 -22 11 -45 20 -52 20 -7 0 -13 5 -13 10 0 6 -6 10 -12 10 -7 0 -41 13
-75 30 -35 16 -63 27 -63 23 0 -3 -7 0 -15 7 -8 7 -15 9 -15 4 0 -5 -4 -4 -8
2 -11 17 -313 111 -339 106 -7 -2 -13 1 -13 5 0 4 -12 9 -27 10 -16 1 -41 4
-58 7 -68 12 -272 26 -279 19z"/>
</g>
</svg>
